<?xml version="1.0" encoding="utf-8"?>
<!-- Generator: Adobe Illustrator 25.3.0, SVG Export Plug-In . SVG Version: 6.00 Build 0)  -->
<svg version="1.1" id="Layer_1" xmlns="http://www.w3.org/2000/svg" xmlns:xlink="http://www.w3.org/1999/xlink" x="0px" y="0px"
	 viewBox="0 0 500 292.8" style="enable-background:new 0 0 500 292.8;" xml:space="preserve">
<style type="text/css">
	.st0{fill:#EAD1BB;}
	.st1{fill:#FFFFFF;}
</style>
<g>
	<g>
		<path class="st0" d="M34.9,6.1c10,0,18.2,1,24.7,2.9c6.5,1.9,11.3,5.1,14.5,9.4c3.2,4.3,4.8,10.1,4.8,17.4c0,4.5-0.8,8.6-2.3,12.3
			c-1.6,3.7-3.7,6.6-6.5,9c-2.8,2.3-6,3.9-9.8,4.7v0.8c3.9,0.8,7.4,2.2,10.7,4.2c3.3,2.1,5.9,5,7.9,8.8c2,3.8,3,8.8,3,15
			c0,7.2-1.7,13.4-5,18.4s-8,9-14,11.6c-6,2.7-13.3,4-21.7,4H0V6.1H34.9z M36.9,54.5c7.2,0,12.2-1.3,15-4c2.8-2.7,4.2-6.6,4.2-11.8
			c0-5.3-1.6-9.1-4.9-11.5c-3.3-2.3-8.4-3.5-15.5-3.5H22.3v30.7H36.9z M22.3,71.6V107h16.3c7.5,0,12.8-1.7,15.7-5
			c2.9-3.3,4.4-7.8,4.4-13.3c0-3.5-0.6-6.6-1.9-9.1c-1.3-2.5-3.4-4.5-6.4-5.9s-7.1-2.1-12.5-2.1H22.3z"/>
		<path class="st0" d="M178,79.6c0,7.5-0.9,14.2-2.8,19.9c-1.9,5.8-4.6,10.7-8.2,14.7c-3.6,4-7.9,7.1-13,9.1
			c-5.1,2.1-10.8,3.1-17.1,3.1c-5.9,0-11.3-1-16.3-3.1c-5-2-9.3-5.1-13-9.1c-3.7-4-6.5-8.9-8.5-14.7c-2-5.8-3-12.4-3-19.9
			c0-10,1.7-18.4,5-25.3c3.3-6.9,8.1-12.2,14.2-15.8c6.2-3.6,13.5-5.4,22-5.4c7.9,0,14.9,1.8,21,5.5c6.2,3.7,11,8.9,14.5,15.8
			C176.2,61.2,178,69.6,178,79.6z M118.5,79.6c0,6.3,0.6,11.7,1.9,16.2c1.3,4.5,3.3,7.9,6,10.2c2.7,2.3,6.3,3.5,10.7,3.5
			c4.3,0,7.8-1.2,10.6-3.5c2.7-2.3,4.7-5.7,6-10.2c1.3-4.5,1.9-9.9,1.9-16.2c0-6.4-0.6-11.8-1.9-16.2c-1.3-4.4-3.3-7.7-6-10
			c-2.7-2.3-6.3-3.4-10.7-3.4c-6.5,0-11.2,2.6-14.1,7.6C119.9,62.8,118.5,70.1,118.5,79.6z"/>
		<path class="st0" d="M211.5,78.8l-27.8-44h25.1l17.3,30.6l17.3-30.6h24.9l-28.1,44l29.4,46h-24.9l-18.6-32.7l-18.8,32.7h-24.9
			L211.5,78.8z"/>
		<path class="st0" d="M293.4,0c3.2,0,6,0.8,8.3,2.4c2.3,1.6,3.5,4.5,3.5,8.6c0,4-1.2,6.8-3.5,8.6c-2.3,1.7-5.1,2.6-8.3,2.6
			c-3.4,0-6.3-0.9-8.6-2.6c-2.3-1.7-3.5-4.6-3.5-8.6c0-4.1,1.2-7,3.5-8.6C287.1,0.8,289.9,0,293.4,0z M304.2,34.7v90.1h-21.9V34.7
			H304.2z"/>
		<path class="st0" d="M373.4,33.1c9.4,0,16.8,2.6,22.3,7.8c5.4,5.2,8.1,13.6,8.1,25.3v58.7h-22.1V70.3c0-6.8-1.2-11.8-3.5-15.2
			c-2.3-3.4-6-5.1-11-5.1c-7.4,0-12.5,2.6-15.1,7.9c-2.7,5.3-4,12.9-4,22.8v44H326V34.7h17l3.2,11.8h1c1.8-3.1,4-5.6,6.7-7.6
			c2.7-2,5.7-3.5,9.1-4.4C366.2,33.5,369.7,33.1,373.4,33.1z"/>
		<path class="st0" d="M454,33.1c5.5,0,10.4,1.1,14.5,3.3s7.5,5.5,10.3,10h0.8l1.8-11.6H500v90.7c0,8.5-1.5,15.7-4.6,21.5
			c-3,5.8-7.7,10.2-13.9,13.2c-6.2,3-14,4.5-23.4,4.5c-6.3,0-12-0.4-17.2-1.2c-5.1-0.8-10.1-2.2-14.7-4.2v-17.3
			c3.3,1.4,6.6,2.7,10,3.7c3.3,1.1,6.8,1.9,10.5,2.4c3.7,0.6,7.5,0.8,11.6,0.8c6.4,0,11.3-1.9,14.7-5.8c3.4-3.9,5.1-9.4,5.1-16.6
			v-2.3c0-1.7,0.1-3.6,0.2-5.8c0.1-2.2,0.3-4,0.5-5.3h-0.8c-2.5,4.7-5.8,8.1-9.8,10.2c-4,2.2-8.8,3.2-14.5,3.2
			c-10.1,0-18-4.1-23.8-12.3c-5.8-8.2-8.7-19.6-8.7-34.2c0-9.9,1.3-18.3,4-25.3c2.7-7,6.5-12.3,11.4-16
			C441.4,34.9,447.2,33.1,454,33.1z M460.6,50.2c-3.8,0-6.9,1.1-9.5,3.4c-2.6,2.3-4.5,5.6-5.7,10.1c-1.3,4.4-1.9,10-1.9,16.6
			c0,9.7,1.4,17.1,4.3,22.1c2.9,5,7.3,7.5,13.1,7.5c3.2,0,6-0.5,8.3-1.4c2.3-0.9,4.2-2.5,5.6-4.7c1.4-2.2,2.5-4.9,3.3-8.3
			c0.8-3.4,1.2-7.5,1.2-12.2v-3.2c0-7.2-0.6-13-1.9-17.4c-1.3-4.4-3.3-7.6-6.1-9.6S465,50.2,460.6,50.2z"/>
	</g>
	<g>
		<path class="st0" d="M51.4,224.4h44.4v61.8c-5.9,2.2-12.2,3.8-19,4.9c-6.8,1.1-14.3,1.7-22.5,1.7c-11.3,0-21.1-2.4-29.2-7.3
			c-8.1-4.9-14.3-12-18.6-21.3c-4.3-9.3-6.5-20.6-6.5-34c0-12.7,2.3-23.7,7-33s11.4-16.5,20.2-21.6c8.9-5.1,19.7-7.7,32.5-7.7
			c6.5,0,12.7,0.7,18.6,2c6,1.3,11.4,3.1,16.3,5.4L87,193.1c-3.9-1.9-8.1-3.5-12.8-4.9c-4.7-1.3-9.6-2-14.7-2
			c-7.7,0-14.2,1.8-19.5,5.4c-5.3,3.6-9.3,8.8-12.1,15.4c-2.8,6.6-4.2,14.4-4.2,23.4c0,8.6,1.2,16.2,3.5,22.9
			c2.3,6.6,6,11.8,10.9,15.5c4.9,3.7,11.2,5.5,18.8,5.5c2.4,0,4.6-0.1,6.6-0.3c2-0.2,3.9-0.5,5.7-0.9c1.8-0.3,3.3-0.7,4.7-1v-29.3
			H51.4V224.4z"/>
		<path class="st1" d="M141.4,291.1h-22.6V161.8h22.6V291.1z"/>
		<path class="st1" d="M243.5,244.8c0,7.7-1,14.5-2.9,20.4c-1.9,5.9-4.7,10.9-8.4,15.1c-3.7,4.1-8.1,7.3-13.4,9.4
			c-5.2,2.1-11.1,3.1-17.5,3.1c-6,0-11.6-1-16.7-3.1c-5.1-2.1-9.5-5.2-13.3-9.4c-3.7-4.1-6.6-9.2-8.7-15.1c-2-5.9-3.1-12.7-3.1-20.4
			c0-10.2,1.7-18.9,5.1-25.9c3.4-7.1,8.3-12.5,14.5-16.2c6.3-3.7,13.8-5.5,22.5-5.5c8.1,0,15.2,1.9,21.5,5.6
			c6.3,3.7,11.2,9.1,14.8,16.2C241.7,226,243.5,234.6,243.5,244.8z M182.6,244.8c0,6.5,0.6,12,2,16.6c1.3,4.6,3.3,8.1,6.1,10.5
			c2.8,2.4,6.4,3.6,11,3.6c4.4,0,8-1.2,10.8-3.6c2.8-2.4,4.8-5.9,6.1-10.5c1.3-4.6,2-10.1,2-16.6c0-6.6-0.7-12.1-2-16.6
			c-1.3-4.5-3.3-7.9-6.1-10.2c-2.8-2.3-6.4-3.5-11-3.5c-6.7,0-11.5,2.6-14.5,7.8C184.1,227.6,182.6,235,182.6,244.8z"/>
		<path class="st1" d="M280.8,291.1l-33.2-92.2h23.7l16.5,53.3c0.8,2.2,1.4,4.5,2,7.1c0.5,2.6,1,5,1.4,7.5c0.5,2.4,0.7,4.6,0.7,6.4
			h0.7c0.2-1.9,0.5-4.1,0.9-6.6s0.9-4.9,1.6-7.4c0.7-2.5,1.3-4.8,1.9-7l16.7-53.3h23.7l-33.2,92.2H280.8z"/>
		<path class="st1" d="M382.3,197.2c7.9,0,14.8,1.7,20.5,5c5.7,3.3,10.2,8.1,13.4,14.3s4.8,13.7,4.8,22.5v10.9h-56.5
			c0.2,8.4,2.3,14.9,6.2,19.5c3.9,4.6,9.4,6.9,16.6,6.9c5.6,0,10.6-0.6,15.1-1.8c4.5-1.2,9.1-2.9,13.9-5.2v17.2
			c-4.3,2.2-8.8,3.7-13.4,4.8c-4.7,1-10.4,1.5-17.2,1.5c-8.6,0-16.2-1.7-22.9-5.2c-6.6-3.5-11.8-8.7-15.6-15.7
			c-3.7-7-5.6-15.8-5.6-26.2c0-10.5,1.7-19.4,5.1-26.6c3.4-7.2,8.2-12.6,14.4-16.3C367.2,199,374.3,197.2,382.3,197.2z M382.7,213
			c-5,0-9.1,1.8-12.3,5.5c-3.2,3.7-5,9.2-5.6,16.4h34.7c0-4.3-0.6-8.1-1.9-11.4c-1.2-3.3-3.1-5.9-5.6-7.7
			C389.5,213.9,386.4,213,382.7,213z"/>
		<path class="st0" d="M500,264.4c0,6.1-1.4,11.3-4.1,15.6c-2.7,4.3-6.8,7.5-12.1,9.6c-5.3,2.2-12,3.2-20.1,3.2
			c-6.1,0-11.5-0.5-16-1.4s-8.9-2.3-13.1-4.3V269c4.5,2.2,9.4,4,14.7,5.4c5.3,1.5,10.1,2.2,14.4,2.2c5.1,0,8.8-0.9,11.1-2.7
			c2.3-1.8,3.4-4.3,3.4-7.3c0-1.8-0.5-3.5-1.5-4.9c-1-1.5-2.9-3-5.8-4.7c-2.8-1.6-7-3.7-12.4-6.2c-5.3-2.4-9.8-4.8-13.3-7.2
			c-3.5-2.4-6.2-5.2-8-8.6c-1.8-3.3-2.7-7.6-2.7-12.7c0-8.3,3.1-14.5,9.4-18.8c6.3-4.3,14.5-6.4,24.8-6.4c5.6,0,10.7,0.5,15.6,1.6
			c4.8,1.1,9.7,2.8,14.6,5.2l-6.6,15.8c-2.7-1.2-5.5-2.4-8.3-3.3c-2.8-1-5.5-1.7-8.1-2.3c-2.6-0.6-5.1-0.8-7.5-0.8c-4,0-7,0.7-9,2.1
			c-2,1.4-3.1,3.4-3.1,5.9c0,1.9,0.5,3.6,1.6,5c1.1,1.4,3,2.9,5.8,4.3c2.8,1.5,6.8,3.3,12,5.4c5.2,2.2,9.6,4.4,13.3,6.7
			s6.4,5.2,8.3,8.6C499.1,254.8,500,259.2,500,264.4z"/>
	</g>
</g>
</svg>
