<?xml version="1.0" encoding="utf-8"?>
<!-- Generator: Adobe Illustrator 25.3.0, SVG Export Plug-In . SVG Version: 6.00 Build 0)  -->
<svg version="1.1" id="Layer_1" xmlns="http://www.w3.org/2000/svg" xmlns:xlink="http://www.w3.org/1999/xlink" x="0px" y="0px"
	 viewBox="0 0 495 500" style="enable-background:new 0 0 495 500;" xml:space="preserve">
<style type="text/css">
	.st0{fill:#1A1D21;}
</style>
<path class="st0" d="M35.4,30.8h34.3c5.9,0.1,10.7,4.9,10.8,10.8v162.8c-0.1,5.9-4.9,10.7-10.8,10.8H0V0h35.4V30.8z M35.4,182h9.8
	V63.9h-9.8V182z"/>
<path class="st0" d="M162.8,30.8c5.9,0.1,10.7,4.9,10.8,10.8v162.8c-0.1,5.9-4.9,10.7-10.8,10.8h-58.9c-5.9-0.1-10.7-4.9-10.8-10.8
	V41.5c0.1-5.9,4.9-10.7,10.8-10.8L162.8,30.8L162.8,30.8z M128.5,182h9.8V63.9h-9.8V182z"/>
<path class="st0" d="M224.1,160.8l-5.2,54.3h-33.4l20.9-94.7l-20.9-89.7h33.4l5.2,45.2l5.2-45.2h33.5l-21.5,91.7H241l21.5,92.7H229
	L224.1,160.8z"/>
<path class="st0" d="M309.4,33.9H274V0h35.4V33.9z M309.4,215.1H274V37.8h35.4V215.1z"/>
<path class="st0" d="M367,63.9h-9.8v151.2h-35.4V30.8h69.8c5.9,0.1,10.7,4.9,10.8,10.8v173.6H367V63.9z"/>
<path class="st0" d="M495,250.5c0,2.8-1.2,5.5-3.2,7.4c-2,2.1-4.7,3.2-7.6,3.2h-69.7V228h45.1v-12.9h-34.4
	c-5.9-0.1-10.7-4.9-10.8-10.8V41.5c0.1-5.9,4.9-10.7,10.8-10.8H495V250.5z M449.9,182h9.8V63.9h-9.8V182z"/>
<path class="st0" d="M78.2,489.7c0,2.7-1.1,5.3-3.1,7.2c-1.9,2-4.6,3.1-7.4,3.1H0v-32.2h43.8v-12.5H10.5c-2.8,0-5.4-1.1-7.3-3.1
	c-2-1.9-3.2-4.6-3.1-7.4V286.9c0-2.8,1.1-5.4,3.1-7.4c1.9-2,4.6-3.2,7.3-3.1h67.7V489.7z M34.3,423.2h9.5V308.6h-9.5V423.2z"/>
<path class="st0" d="M125.4,455.3H91.1V246.6h34.3L125.4,455.3z"/>
<path class="st0" d="M205.2,276.5c5.7,0.1,10.4,4.7,10.5,10.5v157.9c-0.1,5.7-4.7,10.4-10.5,10.5H148c-5.7-0.1-10.4-4.7-10.5-10.5
	v-158c0.1-5.7,4.7-10.4,10.5-10.5h57.2V276.5z M171.9,423.2h9.4V308.6h-9.4V423.2z"/>
<path class="st0" d="M272.2,386.8l11.1-110.3h33.9l-27.7,178.9h-34.6l-27.6-178.9h33.9L272.2,386.8z"/>
<path class="st0" d="M361.3,374.2v48.9h9.5v-26.5h34.4v48.2c-0.1,5.7-4.7,10.4-10.5,10.5h-57.2c-5.7-0.1-10.3-4.7-10.5-10.5V286.9
	c0.1-5.7,4.7-10.4,10.5-10.5h57.2c5.7,0.1,10.4,4.7,10.5,10.5v87.3H361.3z M361.3,342.4h9.5v-33.8h-9.5V342.4z"/>
<path class="st0" d="M416.9,395.1h34.3v28.1h9.5v-42.4h-33.3c-5.7-0.1-10.4-4.7-10.5-10.5v-83.4c0.1-5.7,4.7-10.4,10.5-10.5h57.2
	c5.7,0.1,10.3,4.8,10.5,10.5V337h-34.3v-28.4h-9.5v40h33.3c2.8,0,5.4,1.1,7.4,3.1c2,1.9,3.1,4.5,3.1,7.3v85.9
	c-0.1,5.7-4.7,10.4-10.5,10.5h-57.2c-5.7-0.1-10.4-4.7-10.5-10.5V395.1z"/>
</svg>
