<?xml version="1.0" encoding="utf-8"?>
<!-- Generator: Adobe Illustrator 25.3.0, SVG Export Plug-In . SVG Version: 6.00 Build 0)  -->
<svg version="1.1" id="Layer_1" xmlns="http://www.w3.org/2000/svg" xmlns:xlink="http://www.w3.org/1999/xlink" x="0px" y="0px"
	 viewBox="0 0 152.8 100.3" style="enable-background:new 0 0 152.8 100.3;" xml:space="preserve">
<style type="text/css">
	.st0{fill:#FFFFFF;}
	.st1{fill:#F76529;}
</style>
<g>
	<g>
		<path class="st0" d="M5,14.3h16V0h16.5v100.3H5c-1.4,0-2.5-0.5-3.5-1.5c-1-1-1.5-2.2-1.5-3.5V19.4c0-1.4,0.5-2.5,1.5-3.5
			C2.5,14.8,3.7,14.3,5,14.3z M16.5,84.8H21v-55h-4.5V84.8z"/>
		<path class="st0" d="M84.8,30.3l-4.5,0.1v69.9H63.7V29.8h-4.5v70.5H42.7V14.3h32.5c1.1,0,2.1,0.4,3,1.1c0.9,0.7,1.4,1.6,1.7,2.6
			c0.3-1,0.9-1.9,1.9-2.6c0.9-0.7,1.9-1.1,3-1.1h11.5c1.4,0,2.5,0.5,3.5,1.5c1,1,1.5,2.2,1.5,3.5v80.9H84.8V30.3z"/>
		<path class="st0" d="M106.1,71.3h16.5v13.5h4.5V64.5h-16c-1.4,0-2.5-0.5-3.5-1.5c-1-1-1.5-2.2-1.5-3.5V19.4c0-1.4,0.5-2.5,1.5-3.5
			c1-1,2.2-1.5,3.5-1.5h0.4h26.6h0.4c1.4,0,2.5,0.5,3.5,1.5c1,1,1.5,2.2,1.5,3.5v24.1h-16.5V29.8h-4.5V49h15.6h0.4
			c1.4,0,2.5,0.5,3.5,1.5c1,1,1.5,2.2,1.5,3.5v40.8v0.4c0,1.4-0.5,2.5-1.5,3.5c-1,1-2.2,1.5-3.5,1.5h-27.1h-0.4
			c-1.4,0-2.5-0.5-3.5-1.5c-1-1-1.5-2.2-1.5-3.5V71.3z"/>
	</g>
	<path class="st1" d="M142.4,10.4H42.7V0h110.1v0C152.8,5.8,148.1,10.4,142.4,10.4z"/>
</g>
</svg>
